<svg width="32" height="32" viewBox="0 0 32 32" fill="none" xmlns="http://www.w3.org/2000/svg">
<path d="M27 8.99805H5C4.44772 8.99805 4 9.44576 4 9.99805V25.998C4 26.5503 4.44772 26.998 5 26.998H27C27.5523 26.998 28 26.5503 28 25.998V9.99805C28 9.44576 27.5523 8.99805 27 8.99805Z" stroke="white" stroke-width="1.5" stroke-linecap="round" stroke-linejoin="round"/>
<path d="M21 8.99805V6.99805C21 6.46761 20.7893 5.95891 20.4142 5.58383C20.0391 5.20876 19.5304 4.99805 19 4.99805H13C12.4696 4.99805 11.9609 5.20876 11.5858 5.58383C11.2107 5.95891 11 6.46761 11 6.99805V8.99805" stroke="white" stroke-width="1.5" stroke-linecap="round" stroke-linejoin="round"/>
<path d="M28 15.7871C24.3529 17.8964 20.2132 19.0046 16 18.9996C11.7861 19.0106 7.64484 17.9019 4 15.7871" stroke="white" stroke-width="1.5" stroke-linecap="round" stroke-linejoin="round"/>
<path d="M14.5 14.998H17.5" stroke="white" stroke-width="1.5" stroke-linecap="round" stroke-linejoin="round"/>
</svg>
