<svg width="32" height="32" viewBox="0 0 32 32" fill="none" xmlns="http://www.w3.org/2000/svg">
<g clip-path="url(#clip0_80057_77635)">
<path d="M5.89062 14.391V12.0389L15.8847 5.88867L25.8788 12.0389V14.391" stroke="white" stroke-width="1.5"/>
<path d="M28.8918 9.93852L23.7204 6.51454V3.19748H20.9132V5.04029L16.3564 2.19356C16.2485 2.12693 16.1257 2.0918 16.0006 2.0918C15.8754 2.0918 15.7526 2.12693 15.6448 2.19356L3.10938 9.93926" stroke="white" stroke-width="1.5"/>
<path d="M26.799 18.1638L26.7912 18.1702L26.7836 18.1768L21.4992 22.7702L19.6886 22.7548C20.2634 22.3623 20.6935 21.7559 20.8152 21.0057L20.8153 21.0052C21.0836 19.3451 19.8274 17.8653 18.1959 17.8653H11.8932C10.987 17.8653 10.3326 18.0283 9.72202 18.3739C9.27904 18.6247 8.86086 18.9771 8.41635 19.3517C8.306 19.4447 8.19403 19.5391 8.07965 19.6336L8.07922 19.634L5.52233 21.7502H2.49826C1.54628 21.7502 0.796875 22.5377 0.796875 23.4714V28.9345C0.796875 29.8682 1.54628 30.6557 2.49826 30.6557H18.3624C19.3979 30.6557 20.4035 30.2983 21.2146 29.6373L21.2153 29.6367L30.2044 22.2931C30.2048 22.2929 30.2051 22.2926 30.2054 22.2923C31.4588 21.2728 31.5544 19.33 30.3173 18.1916C29.3016 17.2523 27.7829 17.3538 26.799 18.1638Z" stroke="white" stroke-width="1.5"/>
</g>
<defs>
<clipPath id="clip0_80057_77635">
<rect width="32" height="32" fill="white" transform="translate(0 -0.00195312)"/>
</clipPath>
</defs>
</svg>
