<svg width="32" height="32" viewBox="0 0 32 32" fill="none" xmlns="http://www.w3.org/2000/svg">
<g clip-path="url(#clip0_80057_76866)">
<path d="M3.94515 26.5855L2.26855 26.7624C2.25516 26.7627 2.24236 26.7898 2.25603 26.8029L3.23773 27.9265C3.24457 27.933 3.23802 27.9398 3.23119 27.9333L1.7379 27.9188" stroke="white" stroke-miterlimit="10" stroke-linecap="round"/>
<path d="M6.03326 29.5048L5.55261 31.1153C5.54636 31.1355 5.51959 31.1361 5.5193 31.1227L4.59681 29.951C4.58998 29.9444 4.58343 29.9513 4.58343 29.9513L4.32057 31.4165" stroke="white" stroke-miterlimit="10" stroke-linecap="round"/>
<path d="M12.0057 26.9989L11.2189 27.875C10.6137 28.507 9.81077 28.7159 9.42108 28.3427L4.32777 23.4652C3.93808 23.0921 4.11201 22.2809 4.71721 21.6489L5.50391 20.998" stroke="white" stroke-width="1.5" stroke-miterlimit="10" stroke-linecap="round" stroke-linejoin="round"/>
<path d="M18.2082 29.9615L14.7283 26.6291C14.7283 26.6291 13.6502 27.2349 12.7653 26.2566L6.26369 20.0304C5.24793 19.1888 5.8065 18.0854 5.8065 18.0854L2.32664 14.753C2.25144 14.681 2.25538 14.5537 2.34107 14.4916L4.02039 13.2033C4.6723 12.7004 5.44217 12.3892 6.26367 12.2978L11.2465 11.7614C11.6873 11.7117 12.0981 11.5154 12.4058 11.1941L16.0394 7.39971C17.5452 5.82728 19.4418 4.68156 21.5311 4.08734L25.9225 2.82736C27.7989 2.29132 29.5559 3.97388 29.1016 5.87169L28.0328 10.3135C27.523 12.4334 26.467 14.371 24.9612 15.9435L21.3276 19.7378C21.0199 20.0591 20.8347 20.4715 20.811 20.9206L20.4907 25.9219C20.4415 26.7398 20.1573 27.5293 19.6832 28.2023L18.4687 29.9358C18.4104 30.0241 18.2834 30.0336 18.2082 29.9615Z" stroke="white" stroke-width="1.5" stroke-miterlimit="10" stroke-linecap="round" stroke-linejoin="round"/>
<path d="M17.3813 14.9166C18.1554 15.6579 19.3837 15.6313 20.125 14.8572C20.8662 14.0832 20.8396 12.8548 20.0656 12.1136C19.2915 11.3724 18.0632 11.399 17.3219 12.173C16.5807 12.947 16.6073 14.1754 17.3813 14.9166Z" stroke="white" stroke-width="1.5" stroke-miterlimit="10" stroke-linecap="round" stroke-linejoin="round"/>
<path d="M6.49411 17.996L7.81914 16.7976" stroke="white" stroke-width="1.5" stroke-miterlimit="10" stroke-linecap="round" stroke-linejoin="round"/>
<path d="M13.9941 25.496C14.9273 24.5215 14.4168 25.3017 15.35 24.3272" stroke="white" stroke-width="1.5" stroke-miterlimit="10" stroke-linecap="round" stroke-linejoin="round"/>
</g>
<defs>
<clipPath id="clip0_80057_76866">
<rect width="32" height="32" fill="white" transform="translate(0 -0.00195312)"/>
</clipPath>
</defs>
</svg>
