<svg width="32" height="32" viewBox="0 0 32 32" fill="none" xmlns="http://www.w3.org/2000/svg">
<g clip-path="url(#clip0_80057_77674)">
<path d="M24.1563 12.5059C25.7178 12.5059 26.9877 13.9033 26.9877 15.6216V28.0848C26.9877 29.8032 25.7178 31.2006 24.1563 31.2006H7.16741C5.60585 31.2006 4.33594 29.8032 4.33594 28.0848V15.6216C4.33594 13.9033 5.60585 12.5059 7.16741 12.5059H9.99889H21.3248H24.1563Z" stroke="white" stroke-width="1.5"/>
<path d="M21.8928 12.5049V7.83119C21.8928 3.53607 18.7771 1.59961 15.6613 1.59961C12.5455 1.59961 9.42969 3.53607 9.42969 7.83119V12.5049" stroke="white" stroke-width="1.5"/>
<path d="M18.7944 17.5996C19.0801 17.5996 19.312 17.8383 19.312 18.1325C19.312 18.4269 19.0799 18.6654 18.7942 18.6657H17.1619C17.4267 19.0166 17.6091 19.4347 17.6829 19.8908H18.7942C19.0799 19.8908 19.3117 20.1296 19.3117 20.4237C19.3117 20.7179 19.0799 20.9566 18.7942 20.9566H17.6521C17.3798 22.1727 16.3224 23.0829 15.0603 23.0829H13.8142L17.0848 26.2804C17.2921 26.4834 17.3006 26.8202 17.1034 27.0339C17.0023 27.1439 16.8651 27.1996 16.7284 27.1996C16.6001 27.1996 16.4722 27.1511 16.3721 27.0531L12.1612 22.9361C12.0078 22.7864 11.9583 22.5551 12.037 22.3523C12.1154 22.1498 12.3059 22.0171 12.5176 22.0171H15.0605C15.7466 22.0171 16.3335 21.5767 16.5721 20.9564H12.5176C12.2319 20.9564 12 20.7176 12 20.4235C12 20.1293 12.2319 19.8906 12.5176 19.8906H16.6257C16.4339 19.185 15.8058 18.6654 15.0605 18.6654H12.5176C12.2319 18.6654 12 18.4267 12 18.1325C12 17.8383 12.2319 17.5996 12.5176 17.5996H18.7944Z" fill="white"/>
</g>
<defs>
<clipPath id="clip0_80057_77674">
<rect width="32" height="32" fill="white" transform="translate(0 -0.00195312)"/>
</clipPath>
</defs>
</svg>
