<svg width="18" height="14" viewBox="0 0 18 14" fill="none" xmlns="http://www.w3.org/2000/svg">
<path d="M16.7041 6.02185C17.0986 6.53784 17.0986 7.23442 16.7041 7.74958C15.4616 9.37161 12.4805 12.7114 9.00013 12.7114C5.51971 12.7114 2.53864 9.37161 1.29611 7.74958C1.10419 7.50251 1 7.19857 1 6.88571C1 6.57286 1.10419 6.26892 1.29611 6.02185C2.53864 4.39982 5.51971 1.06006 9.00013 1.06006C12.4805 1.06006 15.4616 4.39982 16.7041 6.02185V6.02185Z" stroke="white" stroke-width="1.5" stroke-linecap="round" stroke-linejoin="round"/>
<path d="M9.00052 9.38246C10.3794 9.38246 11.4972 8.26464 11.4972 6.88575C11.4972 5.50685 10.3794 4.38904 9.00052 4.38904C7.62163 4.38904 6.50381 5.50685 6.50381 6.88575C6.50381 8.26464 7.62163 9.38246 9.00052 9.38246Z" stroke="white" stroke-width="1.5" stroke-linecap="round" stroke-linejoin="round"/>
</svg>
