<svg width="60" height="61" viewBox="0 0 60 61" fill="none" xmlns="http://www.w3.org/2000/svg">
<path d="M29.7129 0C13.3045 0 0 13.517 0 30.1875C0 46.858 13.3045 60.375 29.7129 60.375C46.1212 60.375 59.4257 46.858 59.4257 30.1875C59.4257 13.517 46.1212 0 29.7129 0ZM29.7129 55.2539C16.09 55.2539 5.04057 44.0279 5.04057 30.1875C5.04057 16.3471 16.09 5.12109 29.7129 5.12109C43.3357 5.12109 54.3851 16.3471 54.3851 30.1875C54.3851 44.0279 43.3357 55.2539 29.7129 55.2539Z" fill="white"/>
<path d="M29.7132 3.35449C15.1301 3.35449 3.30176 15.3718 3.30176 30.1878C3.30176 45.0039 15.1301 57.0212 29.7132 57.0212C44.2963 57.0212 56.1246 45.0039 56.1246 30.1878C56.1246 15.3718 44.2963 3.35449 29.7132 3.35449ZM41.364 30.635L25.858 42.0969C25.773 42.159 25.6728 42.196 25.5684 42.204C25.464 42.212 25.3595 42.1906 25.2663 42.1421C25.1731 42.0936 25.0949 42.02 25.0402 41.9293C24.9855 41.8387 24.9565 41.7344 24.9563 41.6281V18.7187C24.9559 18.6122 24.9847 18.5076 25.0392 18.4166C25.0938 18.3256 25.1721 18.2517 25.2655 18.2032C25.3589 18.1546 25.4636 18.1333 25.5682 18.1415C25.6728 18.1498 25.7731 18.1873 25.858 18.2499L41.364 29.7045C41.4373 29.7572 41.497 29.8269 41.5383 29.9079C41.5795 29.9888 41.6011 30.0786 41.6011 30.1698C41.6011 30.261 41.5795 30.3508 41.5383 30.4317C41.497 30.5127 41.4373 30.5824 41.364 30.635Z" fill="#050E1E" fill-opacity="0.8"/>
<path d="M40.5968 29.7359L26.1118 19.0355C26.0325 18.977 25.9389 18.9419 25.8412 18.9342C25.7435 18.9265 25.6456 18.9465 25.5584 18.9918C25.4712 19.0372 25.398 19.1062 25.347 19.1912C25.296 19.2762 25.2692 19.3739 25.2695 19.4734V40.8743C25.2697 40.9736 25.2968 41.071 25.3479 41.1557C25.399 41.2404 25.4721 41.3092 25.5591 41.3544C25.6462 41.3997 25.7438 41.4197 25.8413 41.4123C25.9388 41.4048 26.0324 41.3702 26.1118 41.3122L40.5968 30.6051C40.6653 30.5559 40.7211 30.4908 40.7596 30.4152C40.7982 30.3396 40.8183 30.2556 40.8183 30.1705C40.8183 30.0853 40.7982 30.0014 40.7596 29.9258C40.7211 29.8502 40.6653 29.785 40.5968 29.7359Z" fill="white"/>
</svg>
