<svg width="112" height="33" viewBox="0 0 112 33" fill="none" xmlns="http://www.w3.org/2000/svg">
<path d="M46.82 24.154C45.7493 24.154 44.7813 23.9707 43.916 23.604C43.0653 23.2373 42.3907 22.7093 41.892 22.02C41.3933 21.3307 41.1367 20.5167 41.122 19.578H44.422C44.466 20.2087 44.686 20.7073 45.082 21.074C45.4927 21.4407 46.05 21.624 46.754 21.624C47.4727 21.624 48.0373 21.4553 48.448 21.118C48.8587 20.766 49.064 20.3113 49.064 19.754C49.064 19.2993 48.9247 18.9253 48.646 18.632C48.3673 18.3387 48.0153 18.1113 47.59 17.95C47.1793 17.774 46.6073 17.5833 45.874 17.378C44.8767 17.0847 44.0627 16.7987 43.432 16.52C42.816 16.2267 42.2807 15.794 41.826 15.222C41.386 14.6353 41.166 13.858 41.166 12.89C41.166 11.9807 41.3933 11.1887 41.848 10.514C42.3027 9.83933 42.9407 9.326 43.762 8.974C44.5833 8.60733 45.522 8.424 46.578 8.424C48.162 8.424 49.4453 8.81267 50.428 9.59C51.4253 10.3527 51.9753 11.4233 52.078 12.802H48.69C48.6607 12.274 48.4333 11.8413 48.008 11.504C47.5973 11.152 47.0473 10.976 46.358 10.976C45.7567 10.976 45.2727 11.13 44.906 11.438C44.554 11.746 44.378 12.1933 44.378 12.78C44.378 13.1907 44.51 13.5353 44.774 13.814C45.0527 14.078 45.39 14.298 45.786 14.474C46.1967 14.6353 46.7687 14.826 47.502 15.046C48.4993 15.3393 49.3133 15.6327 49.944 15.926C50.5747 16.2193 51.1173 16.6593 51.572 17.246C52.0267 17.8327 52.254 18.6027 52.254 19.556C52.254 20.3773 52.0413 21.14 51.616 21.844C51.1907 22.548 50.5673 23.1127 49.746 23.538C48.9247 23.9487 47.9493 24.154 46.82 24.154ZM64.0363 16.124C64.9016 16.2853 65.6129 16.718 66.1703 17.422C66.7276 18.126 67.0063 18.9327 67.0063 19.842C67.0063 20.6633 66.8009 21.3893 66.3903 22.02C65.9943 22.636 65.4149 23.12 64.6523 23.472C63.8896 23.824 62.9876 24 61.9462 24H55.3242V8.644H61.6603C62.7016 8.644 63.5963 8.81267 64.3443 9.15C65.1069 9.48733 65.6789 9.95667 66.0603 10.558C66.4563 11.1593 66.6543 11.8413 66.6543 12.604C66.6543 13.4987 66.4123 14.2467 65.9282 14.848C65.4589 15.4493 64.8283 15.8747 64.0363 16.124ZM58.4042 14.98H61.2202C61.9536 14.98 62.5183 14.8187 62.9143 14.496C63.3103 14.1587 63.5082 13.682 63.5082 13.066C63.5082 12.45 63.3103 11.9733 62.9143 11.636C62.5183 11.2987 61.9536 11.13 61.2202 11.13H58.4042V14.98ZM61.5063 21.492C62.2543 21.492 62.8336 21.316 63.2443 20.964C63.6696 20.612 63.8823 20.1133 63.8823 19.468C63.8823 18.808 63.6623 18.2947 63.2223 17.928C62.7823 17.5467 62.1883 17.356 61.4402 17.356H58.4042V21.492H61.5063ZM88.6372 24H85.5572L78.5832 13.462V24H75.5032V8.622H78.5832L85.5572 19.182V8.622H88.6372V24ZM100.001 24L96.6129 18.016H95.1609V24H92.0809V8.644H97.8449C99.0329 8.644 100.045 8.85667 100.881 9.282C101.717 9.69267 102.34 10.2573 102.751 10.976C103.176 11.68 103.389 12.472 103.389 13.352C103.389 14.364 103.096 15.2807 102.509 16.102C101.922 16.9087 101.05 17.466 99.8909 17.774L103.565 24H100.001ZM95.1609 15.706H97.7349C98.5709 15.706 99.1942 15.508 99.6049 15.112C100.016 14.7013 100.221 14.1367 100.221 13.418C100.221 12.714 100.016 12.1713 99.6049 11.79C99.1942 11.394 98.5709 11.196 97.7349 11.196H95.1609V15.706ZM109.655 8.644V24H106.575V8.644H109.655Z" fill="#3E89FA"/>
<path fill-rule="evenodd" clip-rule="evenodd" d="M12.4952 0.67014C10.9504 1.01493 9.60525 1.51006 8.45972 2.15552C6.8406 3.15758 5.69644 3.96974 5.02723 4.59201C3.71782 5.9171 2.79159 7.07197 2.24854 8.0566C1.77079 8.82776 1.30869 9.84327 0.862231 11.1031C0.408876 12.5521 0.154386 13.6921 0.0987629 14.523C0.0153275 15.7693 -0.11321 16.6386 0.196649 18.4257C0.403222 19.6171 0.66225 20.4827 0.973732 21.0225C1.16058 19.6037 1.51293 18.4677 2.03078 17.6146C2.42522 16.9279 2.84854 16.3537 3.30076 15.8918C3.7439 15.4088 4.20929 14.9924 4.69695 14.6425C5.2179 14.2432 5.89538 13.8389 6.72941 13.4298C7.56216 13.0498 8.33378 12.7741 9.04426 12.6025C10.0509 12.3342 10.9382 12.1306 11.7062 11.9915C12.7122 11.8234 13.7472 11.6721 14.8113 11.5374C15.7491 11.4275 16.7395 11.3137 17.7825 11.1961C19.3469 11.0196 22.0665 10.4592 23.1058 9.93227C23.98 9.58398 24.8046 9.10714 25.5797 8.50174C26.2154 8.0092 26.6666 7.38727 26.9333 6.63596C27.033 6.27548 27.0213 5.91386 26.8982 5.55109C26.618 4.84258 25.9168 4.09773 24.7948 3.31654C25.1242 3.79507 25.1996 4.47645 25.0211 5.36068C24.8063 6.01066 24.3712 6.5365 23.7157 6.93822C23.0706 7.35607 22.3975 7.67224 21.6965 7.88672C20.7591 8.17363 19.7673 8.38915 18.7211 8.53331C17.6327 8.65902 16.5981 8.76966 15.6173 8.86522C14.1686 9.05758 13.1771 9.18127 12.6427 9.23628C11.0051 9.43745 10.178 9.56673 10.1614 9.62411C10.4948 9.30197 11.4258 8.92965 12.9544 8.50715C13.5176 8.34695 14.4977 8.09568 15.8946 7.75331C16.7487 7.52966 17.4315 7.31861 17.9431 7.12017C18.591 6.86723 19.2186 6.55969 19.8258 6.19756C20.4176 5.78545 20.8852 5.35812 21.2286 4.91557C21.6753 4.4682 21.8047 3.79152 21.6169 2.88554C21.3447 2.01349 20.6668 1.35083 19.5831 0.897555C18.7513 0.549674 14.8746 0.135865 12.4952 0.67014Z" fill="#3E89FA"/>
<path fill-rule="evenodd" clip-rule="evenodd" d="M29.4373 7.44922C29.4373 7.44922 30.5584 8.89621 31.4786 11.9684C31.4786 11.9684 31.7994 13.1184 31.9157 14.4849C31.9157 14.4849 32.0289 16.1814 31.9905 16.7418C31.9905 16.7418 31.9193 17.8644 31.8822 18.3679C31.8822 18.3679 31.7848 19.4379 31.5151 20.4737C31.2453 21.5094 30.8823 22.5957 30.628 23.0863C30.628 23.0863 30.2172 23.9381 29.3832 25.1713C29.3832 25.1713 28.1323 26.9108 27.6212 27.4413C27.6212 27.4413 25.686 29.3284 24.2407 30.1964C24.2407 30.1964 22.3209 31.238 20.7091 31.8363C19.0972 32.4346 16.813 32.5415 16.813 32.5415C16.813 32.5415 14.8708 32.6589 13.3469 32.4308C13.3469 32.4308 11.6098 32.0934 10.5658 30.936C10.5658 30.936 9.70921 29.9342 9.30826 28.4086C9.30826 28.4086 9.07808 27.5139 9.10379 26.3125C9.10379 26.3125 9.06504 25.5672 9.66267 24.2099C9.66267 24.2099 10.1385 23.2086 10.9123 22.4134C10.9123 22.4134 11.7101 21.5423 13.0334 20.7933C13.0334 20.7933 13.9654 20.2424 15.7314 19.6581C17.4975 19.0738 17.1498 19.2712 18.6169 18.6948C18.6169 18.6948 20.1385 18.1366 20.8841 17.7525C20.8841 17.7525 21.8058 17.3476 22.493 16.8979C22.493 16.8979 23.8375 16.0159 24.2403 15.5873C24.2403 15.5873 24.2515 15.5604 24.337 15.4418C24.337 15.4418 23.1499 15.9593 22.4766 16.1646C22.4766 16.1646 19.9693 16.9666 19.2515 17.1251C19.2515 17.1251 16.1638 17.7344 15.4224 17.8656C15.4224 17.8656 13.337 18.1824 12.5355 18.3464C12.5355 18.3464 11.738 18.4809 10.1872 19.0074C8.63642 19.5339 7.40322 20.799 6.62763 21.9426C6.62763 21.9426 6.06042 22.7932 5.84801 23.841C5.84801 23.841 5.6588 25.0155 5.92482 26.7976C5.92482 26.7976 6.13224 27.8396 6.37455 28.4139C6.37455 28.4139 6.62994 29.1302 7.08041 29.719C7.08041 29.719 7.15286 29.8337 7.23336 29.9419C7.23336 29.9419 6.22285 29.4299 5.05241 28.1125C5.05241 28.1125 3.91747 26.651 3.56011 25.6734C3.20276 24.6959 3.16286 24.3058 3.02376 23.2169C3.02376 23.2169 2.90687 22.1613 3.36494 20.6399C3.36494 20.6399 3.79741 19.1076 5.31522 17.7103C5.31522 17.7103 6.76544 16.4684 9.33235 15.5894C9.33235 15.5894 11.4998 14.9572 15.2645 14.468C15.2645 14.468 19.1865 13.9204 20.3227 13.6408C20.3227 13.6408 22.3107 13.1974 24.3829 12.1869C26.4551 11.1765 27.6212 9.90685 27.6212 9.90685C27.6212 9.90685 28.2042 9.32721 28.9479 8.29206L29.0716 8.11386L29.1677 7.96059C29.1677 7.96059 29.363 7.62633 29.3832 7.58125L29.4156 7.5115L29.4373 7.44922Z" fill="#3E89FA"/>
</svg>
